<?xml version="1.0" standalone="no"?>
<!DOCTYPE svg PUBLIC "-//W3C//DTD SVG 1.1//EN" "http://www.w3.org/Graphics/SVG/1.1/DTD/svg11.dtd" >
<svg xmlns="http://www.w3.org/2000/svg">
<metadata></metadata>
<defs>
<font id="psl_omyimspitalic" horiz-adv-x="758" >
<font-face units-per-em="2048" ascent="1638" descent="-410" />
<missing-glyph horiz-adv-x="471" />
<glyph horiz-adv-x="0" />
<glyph unicode="&#xd;" horiz-adv-x="471" />
<glyph unicode=" "  horiz-adv-x="471" />
<glyph unicode="&#x09;" horiz-adv-x="471" />
<glyph unicode="&#xa0;" horiz-adv-x="471" />
<glyph unicode="!" horiz-adv-x="375" d="M41 78q4 21 15 40t27.5 33.5t37 22.5t43.5 8q21 0 38.5 -8t28.5 -22.5t16 -33.5t1 -40q-4 -22 -15.5 -40.5t-28 -32.5t-36.5 -22t-41 -8q-44 0 -69 29t-17 74zM109 379q0 25 6 55l73 412q25 141 117 141q72 0 72 -86q0 -25 -6 -55l-74 -412q-24 -143 -115 -143 q-73 0 -73 88z" />
<glyph unicode="&#x22;" horiz-adv-x="422" d="M100 580l66 368h94l-65 -368h-95zM319 580l66 368h96l-65 -368h-97z" />
<glyph unicode="#" horiz-adv-x="1028" d="M29 279l57 100h193l104 201h-203l58 102h200l148 285h112l-147 -285h201l147 285h111l-148 -285h189l-56 -102h-188l-102 -201h194l-55 -100h-195l-151 -281h-111l150 281h-201l-152 -281h-110l149 281h-194zM387 379h207l104 201h-206z" />
<glyph unicode="$" horiz-adv-x="727" d="M0 121q15 84 106 84q16 0 42 -6.5t61 -20.5q76 -24 127 -24q27 0 52 9.5t45 25.5t33 37.5t17 45.5q2 4 2 27q0 45 -43 76q-17 11 -45.5 23t-70.5 26q-60 19 -101.5 39t-64.5 43q-56 53 -56 133v23q2 11 3.5 16t1.5 10q9 55 35.5 103t67.5 85.5t96.5 64t123.5 38.5l17 84 q9 59 47 59q32 0 32 -32q0 -23 -2 -27l-14 -78q235 -21 217 -131q-15 -78 -98 -78q-22 0 -82 17q-29 8 -50.5 12t-35.5 4q-60 0 -99 -27.5t-47 -72.5q-9 -59 60 -93q2 -2 28.5 -11.5t77.5 -29.5q215 -70 215 -229q0 -26 -6 -53q-12 -62 -43 -115.5t-77 -94.5t-106.5 -67 t-131.5 -32l-19 -105q-9 -59 -51 -59q-28 0 -28 30v18q0 6 2 11l18 101q-136 14 -201.5 50.5t-54.5 90.5z" />
<glyph unicode="%" horiz-adv-x="930" d="M88 729q0 5 1 15t3 24q8 42 30 79.5t53.5 65.5t70 44t78.5 16q36 0 65.5 -12.5t51 -35t33 -53t11.5 -67.5q0 -6 -1 -15.5t-3 -21.5q-8 -43 -30.5 -81t-53.5 -66t-69 -44t-78 -16q-36 0 -66 12.5t-51 35t-33 53t-12 67.5zM106 41q4 32 29 63l596 807q53 68 94 68 q26 0 41.5 -16.5t10.5 -42.5q-2 -13 -9.5 -27t-21.5 -39l-596 -807q-53 -65 -94 -65q-26 0 -41 15t-9 44zM199 768q-3 -18 1 -35t13.5 -29.5t24 -20t32.5 -7.5t35.5 7.5t32 20t24.5 29.5t13 35q4 18 -0.5 34.5t-14.5 29t-24.5 19.5t-32.5 7q-37 0 -66.5 -26t-37.5 -64z M502 156q0 6 1 15t3 22q6 43 27.5 80.5t53 65.5t70 44t78.5 16q36 0 66 -13t51 -36t33 -54.5t12 -68.5v-22q0 -7 -2 -12q-9 -44 -31 -81t-53 -63.5t-69 -41.5t-78 -15q-36 0 -66 11.5t-51.5 33t-33 52t-11.5 67.5zM612 193q-6 -38 14.5 -64.5t57.5 -26.5q18 0 35 7t31 19.5 t23.5 29t12.5 35.5t-0.5 36t-13 29.5t-23.5 19.5t-32 7q-38 0 -68 -25.5t-37 -66.5z" />
<glyph unicode="&#x26;" horiz-adv-x="911" d="M12 209q0 17 1 29.5t3 23.5q17 94 85.5 166.5t203.5 134.5q-67 101 -67 178q0 27 2 31q8 47 33.5 86.5t65.5 68t92 44.5t114 16q111 0 170 -52t59 -138v-22t-2 -13q-27 -145 -219 -248l129 -190q138 141 180 141q26 0 43 -22.5t10 -53.5q-9 -57 -159 -180 q23 -32 34.5 -52.5t16.5 -31.5q18 -37 12 -68q-6 -32 -30.5 -52.5t-59.5 -20.5q-46 0 -119 108q-150 -117 -334 -117q-59 0 -107.5 17t-83.5 48t-54 74t-19 95zM203 238q0 -54 32.5 -86.5t94.5 -32.5q48 0 97.5 21.5t109.5 72.5l-156 229q-77 -32 -121 -75.5t-55 -100.5 q-2 -4 -2 -14v-14zM408 768q-13 -63 67 -143q72 26 108 59t44 78q3 19 -3 37.5t-18.5 32.5t-32 23t-43.5 9q-21 0 -42 -8t-37.5 -21t-28 -30.5t-14.5 -36.5z" />
<glyph unicode="'" horiz-adv-x="205" d="M100 580l66 368h94l-65 -368h-95z" />
<glyph unicode="(" horiz-adv-x="455" d="M113 172q0 57 5.5 120.5t16.5 135.5q46 266 172 483q64 119 121 119q65 0 53 -69q-29 -63 -56.5 -126t-53.5 -126q-58 -139 -82 -281q-11 -57 -15 -113t-4 -104q0 -68 8 -140t19 -151q-2 -5 -2 -9v-9q-12 -70 -78 -70q-53 0 -78 88q-14 57 -20 120t-6 132z" />
<glyph unicode=")" horiz-adv-x="455" d="M8 -98q31 61 60.5 124.5t55.5 129.5t46.5 133.5t32.5 138.5q11 56 14.5 111t3.5 104q0 48 -4.5 106.5t-15.5 131.5q-9 64 -6 80q12 69 79 69q54 0 78 -104q14 -50 20.5 -111.5t6.5 -136.5q0 -35 -1 -64.5t-3.5 -58.5t-7 -59.5t-11.5 -67.5q-23 -130 -66 -247t-106 -232 q-65 -117 -121 -117q-64 0 -55 70z" />
<glyph unicode="*" horiz-adv-x="655" d="M160 631q6 37 73 61q5 2 34.5 11t84.5 26l-104 37q-60 25 -53 63q6 25 21 40.5t38 15.5q14 0 31 -10.5t37 -30.5t34.5 -32.5t22.5 -20.5v71q0 16 1.5 35.5t6.5 42.5t19.5 35t37.5 12q54 0 43 -59q-1 -6 -5.5 -22t-11.5 -36t-14.5 -41.5t-13.5 -40.5q19 14 37.5 29 t38.5 29q52 39 82 39q20 0 31 -16.5t6 -39.5q-3 -37 -70 -61q-5 -2 -33.5 -12t-82.5 -27q43 -17 67.5 -24.5t32.5 -12.5q57 -23 51 -61q-5 -23 -20 -39.5t-35 -16.5q-16 0 -33 11t-33.5 26.5t-31.5 32.5t-27 29v-74v-39q-2 -11 -3 -17.5t-1 -11.5q-9 -61 -64 -61 q-48 0 -39 61q5 23 15.5 59t27.5 81q-24 -19 -48.5 -37t-47.5 -35q-34 -25 -61 -25q-20 0 -33 16.5t-8 39.5z" />
<glyph unicode="+" d="M61 350l19 107h264l47 264h107l-47 -264h264l-19 -107h-264l-47 -264h-106l47 264h-265z" />
<glyph unicode="," horiz-adv-x="410" d="M-63 -127q3 25 28 64l141 196q46 70 95 70q29 0 47 -20.5t12 -51.5q-2 -17 -11.5 -33t-17.5 -30l-145 -199q-50 -68 -90 -68q-29 0 -47.5 20.5t-11.5 51.5z" />
<glyph unicode="-" horiz-adv-x="555" d="M51 354q0 17 2 21q15 92 111 92h280q76 0 76 -70v-14q0 -5 -2 -8q-15 -92 -108 -92h-281q-78 0 -78 71z" />
<glyph unicode="." horiz-adv-x="410" d="M53 90q0 7 0.5 18.5t5 25.5t14.5 30.5t29 34.5q20 18 40.5 27.5t43.5 9.5q39 0 63.5 -28.5t24.5 -70.5q0 -20 -2 -24q-11 -51 -46 -85t-83 -34q-38 0 -64 25.5t-26 70.5z" />
<glyph unicode="/" horiz-adv-x="477" d="M-111 39l3.5 10.5t3.5 7.5q2 2 7.5 12.5t16.5 28.5l569 820q46 73 93 73q31 0 50 -19t13 -50q-2 -14 -9 -28.5t-20 -31.5l-571 -821q-47 -68 -92 -68q-31 0 -50 17.5t-14 48.5z" />
<glyph unicode="0" d="M45 311q0 35 4 77t12 91q23 128 65.5 223.5t102.5 161.5q112 121 263 121q122 0 190 -80q76 -88 76 -256v-49q0 -13 -1 -24.5t-3 -25t-5 -30.5t-8 -41q-21 -128 -62.5 -223.5t-103.5 -161.5q-110 -117 -262 -117q-122 0 -192 76q-76 89 -76 258zM248 334q0 -184 96 -184 q31 0 60.5 21.5t55.5 63t47 103t34 141.5q8 42 11 78.5t3 71.5q0 180 -94 180q-63 0 -116.5 -84t-82.5 -246q-8 -38 -11 -74t-3 -71z" />
<glyph unicode="1" d="M219 858q2 3 2 7v9q15 87 158 87h113q88 0 88 -84q0 -28 -7 -60l-120 -684q-26 -139 -121 -139q-78 0 -78 84q0 25 6 55l117 651h-37q-121 0 -121 74z" />
<glyph unicode="2" d="M2 68q0 6 1 15t3 21q6 27 90 105q38 35 70 62.5t55 50.5q153 143 231.5 237t86.5 139q2 4 2 27q0 37 -23 61.5t-61 24.5q-83 0 -142 -109q-55 -108 -112 -108q-76 0 -76 76q0 13 4 38t29 72q14 25 29.5 46.5t35.5 39.5q115 121 271 121q58 0 104.5 -16t79.5 -45.5 t50.5 -70.5t17.5 -91q0 -17 -1.5 -29.5t-3.5 -23.5q-18 -107 -133 -234q-43 -49 -124 -124t-199 -177h245q127 0 127 -72q0 -16 -2 -18q-15 -86 -155 -86h-396q-104 0 -104 68z" />
<glyph unicode="3" d="M25 205q0 20 2 24q15 90 98 90q25 0 41 -12t35 -43q15 -29 27.5 -49t21.5 -31q34 -34 90 -34q28 0 54 11t47 30t36 45t21 57q2 12 3 20t1 13q0 43 -32.5 66t-100.5 34q-68 12 -68 59q0 21 2 25q9 63 94 84q121 27 138 119q2 4 2 26q0 74 -82 74q-32 0 -59 -14t-64 -45 q-26 -20 -40.5 -30t-19.5 -15q-14 -11 -29 -16t-32 -5q-31 0 -49.5 22.5t-11.5 57.5q15 78 116 150q51 35 107 52t116 17q55 0 99.5 -15.5t75 -43t47 -66.5t16.5 -86q0 -8 -1 -18.5t-3 -24.5q-5 -30 -16 -56t-30 -51t-47.5 -49t-68.5 -49q135 -83 135 -202v-25 q-2 -11 -3 -17t-1 -8q-21 -128 -131 -217q-110 -84 -256 -84q-59 0 -108 18.5t-91 53.5q-42 37 -61.5 76.5t-19.5 81.5z" />
<glyph unicode="4" d="M0 287q3 26 14 47q2 2 16 20t40 54l352 466q79 101 170 101q63 0 97 -29.5t34 -97.5q0 -26 -6 -60l-72 -409h39q38 0 55 -23.5t11 -58.5q-7 -35 -31.5 -58.5t-63.5 -23.5h-39l-22 -123q-21 -100 -111 -100q-61 0 -61 65q0 11 1 21.5t3 21.5l20 115h-342q-119 0 -104 72z M238 379h237l74 422z" />
<glyph unicode="5" d="M14 154q16 82 90 82q28 0 91 -43q65 -41 114 -41q31 0 61.5 12.5t55.5 34.5t43 52.5t25 67.5q2 14 3 23t1 14q0 119 -117 119q-12 0 -33.5 -4t-52.5 -12t-52.5 -12.5t-33.5 -4.5q-55 0 -55 56q0 20 2 24l18 74l78 258q9 34 20.5 55t28.5 32.5t40.5 15.5t57.5 4h273 q112 0 112 -68q0 -16 -2 -19q-15 -88 -133 -88h-243l-50 -159q42 11 70.5 14.5t46.5 3.5q52 0 94.5 -18t72.5 -50.5t46 -78.5t16 -101q0 -32 -6 -65q-27 -155 -145 -256q-113 -101 -270 -101q-119 0 -201 52q-78 52 -66 127z" />
<glyph unicode="6" d="M25 246q0 31 6 67q18 106 95 228t214 266q184 184 242 184q18 0 33.5 -7t26 -19t14.5 -28t1 -34q-6 -38 -86 -110q-63 -60 -110 -108.5t-82 -86.5l117 10q47 0 86.5 -18t68.5 -50t45.5 -76t16.5 -97q0 -31 -6 -62q-25 -143 -142 -237q-114 -93 -266 -93 q-62 0 -112.5 19.5t-86.5 54.5t-55.5 85t-19.5 112zM219 274q0 -55 33.5 -91t87.5 -36q30 0 58.5 11.5t51.5 32.5t39 49t21 61q2 4 2 31q0 56 -34 89.5t-85 33.5q-30 0 -58 -11.5t-51.5 -32.5t-40 -49t-22.5 -61q-2 -4 -2 -27z" />
<glyph unicode="7" d="M102 66q2 11 7.5 23.5t13.5 29.5q2 5 7.5 14t16.5 25l410 628h-299q-63 0 -92 12.5t-29 49.5v13q0 6 2 9q17 91 133 91h385q131 0 131 -87q0 -16 -2 -20q-2 -9 -4.5 -17t-5.5 -16.5t-8.5 -19t-13.5 -25.5l-449 -708q-65 -93 -121 -93q-41 0 -65.5 24.5t-16.5 66.5z" />
<glyph unicode="8" d="M23 225q0 17 1 30t3 24q12 74 56.5 136t131.5 111q-72 72 -72 156q0 8 1 18.5t3 24.5q22 112 117 186q48 39 104 57.5t121 18.5q58 0 105.5 -15.5t81 -44t51.5 -68.5t18 -89q0 -8 -1 -19.5t-3 -25.5q-5 -30 -14.5 -55.5t-25.5 -49t-39 -46.5t-56 -48q103 -77 103 -194 v-27q-2 -11 -3 -16t-1 -10q-26 -131 -136 -220q-108 -84 -258 -84q-65 0 -118.5 18t-91 51t-58 79t-20.5 102zM219 268q0 -27 9.5 -50t25.5 -40t38 -27t48 -10q31 0 60.5 12t54 33t42 50t23.5 63q2 4 2 33q0 56 -34.5 92.5t-90.5 36.5q-30 0 -59 -12.5t-53 -34t-41 -51.5 t-23 -64q-2 -4 -2 -31zM322 684q0 -43 26 -71.5t70 -28.5q25 0 49 9t43.5 25.5t33 39t17.5 49.5q4 24 -2 46t-19.5 38.5t-34 26t-44.5 9.5q-37 0 -69 -20.5t-52 -46.5q-17 -26 -17.5 -46.5t-0.5 -29.5z" />
<glyph unicode="9" d="M86 594q0 27 6 57q25 144 141 240q60 49 126.5 73.5t142.5 24.5q62 0 112.5 -19t86 -54.5t54.5 -86t19 -112.5q0 -31 -6 -68q-38 -210 -311 -495q-92 -92 -147.5 -136.5t-92.5 -44.5t-59 25q-12 12 -17.5 27t0.5 35t26 46.5t60 63.5q63 60 111.5 107.5t83.5 89.5 l-111 -13q-52 0 -93.5 18t-71 50t-45 76t-15.5 96zM289 629q0 -56 34 -89.5t85 -33.5q28 0 55.5 11.5t51 32t40.5 48.5t23 61q2 4 2 11v18q0 56 -32.5 90.5t-86.5 34.5q-30 0 -58.5 -11.5t-51.5 -32t-39 -49t-21 -61.5q-2 -4 -2 -30z" />
<glyph unicode=":" horiz-adv-x="410" d="M51 80q0 7 0.5 17.5t4.5 23.5t14 28t28 31q39 33 84 33q42 0 66 -25t24 -67q0 -17 -2 -19q-4 -24 -16 -43.5t-29 -34t-38.5 -22.5t-43.5 -8q-42 0 -67 24t-25 62zM127 514q0 6 0.5 15.5t5 22t14.5 27.5t29 31q41 35 84 35t65.5 -24.5t22.5 -67.5v-14q0 -5 -2 -7 q-4 -24 -15 -44t-28 -34.5t-38.5 -23t-45.5 -8.5q-43 0 -67.5 24.5t-24.5 67.5z" />
<glyph unicode=";" horiz-adv-x="410" d="M-63 -127q3 25 28 64l141 196q46 70 95 70q29 0 47 -20.5t12 -51.5q-2 -17 -11.5 -33t-17.5 -30l-145 -199q-50 -68 -90 -68q-29 0 -47.5 20.5t-11.5 51.5zM127 516q0 6 1 15.5t3 21.5q3 13 15 29t30 30t40 23.5t44 9.5q88 0 88 -90v-13t-2 -7q-4 -24 -15 -44.5t-28 -35 t-38.5 -23t-45.5 -8.5q-43 0 -67.5 24.5t-24.5 67.5z" />
<glyph unicode="&#x3c;" horiz-adv-x="1116" d="M182 344l21 119l817 325l-21 -118l-673 -264l579 -271l-20 -117z" />
<glyph unicode="=" d="M41 238l20 106h635l-20 -106h-635zM82 463l18 106h635l-18 -106h-635z" />
<glyph unicode="&#x3e;" horiz-adv-x="1116" d="M125 18l20 117l678 271l-583 264l20 118l703 -325l-21 -119z" />
<glyph unicode="?" horiz-adv-x="680" d="M80 729v13q0 6 2 8q15 85 117 159q104 74 235 74q61 0 110.5 -17.5t84 -49t53 -77t18.5 -100.5q0 -17 -1 -28.5t-3 -22.5q-9 -53 -33.5 -99t-62 -82t-86.5 -60.5t-108 -34.5l-7 -43q-18 -97 -106 -97q-74 0 -74 68q0 22 2 27l19 104q9 59 47 74q24 8 49 14t51 14 q94 34 111 127q4 22 -1.5 41.5t-18.5 34t-32.5 23t-44.5 8.5q-73 0 -149 -70q-26 -23 -39.5 -35t-15.5 -14q-17 -11 -31 -16.5t-27 -5.5q-59 0 -59 63zM154 78q4 21 15.5 40t28 33.5t37 22.5t41.5 8q44 0 69 -29.5t17 -74.5q-4 -22 -15.5 -40.5t-28 -32.5t-37 -22t-41.5 -8 q-44 0 -69 29t-17 74z" />
<glyph unicode="@" horiz-adv-x="1380" d="M70 229q0 25 2 54.5t8 58.5q39 230 207 397q239 244 585 244q113 0 205.5 -30t155.5 -87q121 -107 121 -268v-53q-5 -14 -5.5 -23t-2.5 -14q-20 -113 -78 -202.5t-152 -158.5q-106 -75 -227 -75q-60 0 -85.5 20t-25.5 80q-119 -98 -233 -98q-172 0 -172 159q0 27 6 62 q14 78 48.5 144t88.5 120q107 107 244 107q54 0 89 -22.5t52 -76.5l53 74h101l-166 -389l-10 -31q-11 -59 63 -59q61 0 125 55q144 114 174 293q6 33 6 65q0 71 -27.5 129.5t-78.5 100.5t-124.5 65t-164.5 23q-94 0 -181 -22.5t-165 -67.5q-277 -170 -326 -461 q-5 -20 -6.5 -45.5t-1.5 -48.5q0 -87 31 -155.5t89 -116t142 -72.5t189 -25q208 0 424 123l32 -61q-115 -75 -232.5 -111.5t-236.5 -36.5q-256 0 -399 125q-141 120 -141 311zM496 248q0 -96 96 -96q30 0 59.5 11.5t56.5 32.5t50 51t39 68l63 152q0 121 -106 121 q-80 0 -156 -88q-77 -91 -98 -209q-2 -17 -3 -27.5t-1 -15.5z" />
<glyph unicode="A" horiz-adv-x="827" d="M-39 41q-2 8 -2 16.5t2 18.5q3 33 19 59l374 705q78 135 181 135q101 0 127 -121l122 -711q0 -14 2 -28.5t2 -22.5q0 -16 -2 -18q-6 -38 -36 -61t-72 -23q-75 0 -84 94l-12 102h-389l-56 -110q-42 -86 -106 -86q-18 0 -32.5 6.5t-24 17.5t-13.5 27zM274 362h283l-55 445z " />
<glyph unicode="B" horiz-adv-x="817" d="M47 76q0 20 6 49l123 694q6 39 17 66.5t29.5 44t46 24t67.5 7.5h184q254 0 254 -187q0 -6 -1 -17t-3 -28q-12 -66 -55.5 -113t-134.5 -86q100 -26 145 -74t45 -122q0 -17 -1 -28.5t-3 -22.5q-23 -136 -122 -209.5t-259 -73.5h-221q-63 0 -90 16t-27 60zM248 162h129 q85 0 133 32t59 97q2 4 2 26q0 101 -153 101h-125zM319 573h111q28 0 53 9t44.5 24t33 35.5t17.5 44.5q2 4 2 25q0 90 -111 90h-109z" />
<glyph unicode="C" horiz-adv-x="797" d="M53 365q0 23 2.5 51t7.5 63q41 229 199 369q159 139 359 139q59 0 108 -11.5t83 -30.5t51 -45q13 -19 13 -40q0 -7 -2 -14q-3 -18 -12 -33.5t-22 -27t-28.5 -18.5t-31.5 -7q-25 0 -61 12q-95 29 -129 29q-59 0 -111 -22t-93 -64t-70 -102.5t-42 -137.5q-5 -20 -6.5 -40.5 t-1.5 -43.5q0 -111 56 -172t161 -61q54 0 125 24q35 14 58 20.5t34 6.5q29 0 47.5 -24.5t12.5 -59.5q-6 -31 -33 -58t-69 -47.5t-98 -32.5t-120 -12q-90 0 -161.5 26.5t-121.5 76.5t-77 122.5t-27 164.5z" />
<glyph unicode="D" horiz-adv-x="928" d="M47 76q0 20 6 49l123 694q6 39 17 66.5t29.5 44t46 24t67.5 7.5h180q94 0 158 -15.5t114 -52.5q138 -98 138 -305v-58q-5 -14 -5.5 -23t-2.5 -15q-19 -114 -67 -205t-119 -155t-163.5 -98t-199.5 -34h-205q-63 0 -90 16t-27 60zM250 176h119q285 0 340 316q5 20 6.5 40 t1.5 43q0 209 -244 209h-115z" />
<glyph unicode="E" horiz-adv-x="662" d="M47 76q0 20 6 49l123 694q6 39 17 66.5t29.5 44t46 24t67.5 7.5h254q127 0 127 -70q0 -17 -2 -19q-15 -88 -156 -88h-201l-39 -211h175q130 0 130 -74q0 -8 -1 -16q-17 -86 -160 -86h-174l-39 -221h207q127 0 127 -70v-13t-2 -7q-17 -86 -156 -86h-262q-63 0 -90 16 t-27 60z" />
<glyph unicode="F" horiz-adv-x="639" d="M47 76q0 25 6 55l123 688q6 39 17 66.5t29.5 44t46 24t67.5 7.5h254q127 0 127 -70q0 -17 -2 -19q-15 -88 -156 -88h-201l-39 -211h175q130 0 130 -74q0 -8 -1 -16q-17 -86 -160 -86h-174l-47 -266q-26 -139 -119 -139q-76 0 -76 84z" />
<glyph unicode="G" horiz-adv-x="963" d="M53 367q0 16 0.5 28t1.5 24t3 26.5t5 35.5q41 233 197 371q156 137 373 137q146 0 235 -59q77 -50 77 -113q0 -9 -1 -18q-3 -18 -11.5 -34t-21 -28t-28 -19t-31.5 -7q-27 0 -104 47q-77 49 -154 49q-62 0 -114.5 -21.5t-94 -62.5t-70 -101t-41.5 -137q-5 -20 -6.5 -44.5 t-1.5 -47.5q0 -112 55.5 -175.5t155.5 -63.5t166.5 58.5t89.5 176.5h-94q-125 0 -125 66v13t2 7q15 88 154 88h164q120 0 120 -92q0 -6 -1 -16.5t-3 -24.5q-33 -200 -178 -330q-143 -125 -342 -125q-87 0 -156.5 27.5t-118.5 78.5t-75.5 123.5t-26.5 162.5z" />
<glyph unicode="H" horiz-adv-x="999" d="M47 76q0 25 6 55l123 698q14 73 43.5 108.5t77.5 35.5q74 0 74 -84q0 -26 -6 -60l-43 -251h444l43 251q14 75 41.5 109.5t81.5 34.5q74 0 74 -84q0 -28 -7 -60l-122 -698q-26 -139 -119 -139q-78 0 -78 84q0 25 6 55l49 270h-444l-49 -270q-26 -139 -119 -139 q-76 0 -76 84z" />
<glyph unicode="I" horiz-adv-x="375" d="M51 76q0 25 6 55l123 698q14 75 41.5 109.5t81.5 34.5q74 0 74 -84q0 -26 -6 -60l-123 -698q-13 -69 -42 -104t-77 -35q-78 0 -78 84z" />
<glyph unicode="J" horiz-adv-x="586" d="M-43 121q8 37 35 62.5t65 25.5q16 0 34 -6.5t38 -20.5q43 -24 61 -24q50 0 78.5 48.5t46.5 153.5l82 469q28 144 121 144q76 0 76 -84q0 -26 -6 -60l-94 -542q-29 -156 -111.5 -233t-216.5 -77q-52 0 -93 11t-68.5 30.5t-40.5 45.5q-8 19 -8 40q0 8 1 17z" />
<glyph unicode="K" horiz-adv-x="817" d="M47 76q0 25 6 55l123 698q14 73 43.5 108.5t77.5 35.5q74 0 74 -84q0 -26 -6 -60l-52 -290l377 360q11 11 23 20.5t24 20.5q40 31 72 31q35 -1 53 -25q13 -18 14 -42q0 -9 -2 -19q-9 -46 -67 -101l-297 -264l248 -344q20 -29 29 -54.5t6 -45.5q-4 -18 -15 -33 t-25.5 -26.5t-31.5 -18t-33 -6.5q-29 0 -51 16q-4 4 -43 53l-293 408l-59 -338q-26 -139 -119 -139q-76 0 -76 84z" />
<glyph unicode="L" horiz-adv-x="602" d="M47 76q0 20 6 49l123 704q14 73 43.5 108.5t77.5 35.5q74 0 74 -84q0 -26 -6 -60l-115 -653h207q127 0 127 -72q0 -16 -2 -18q-17 -86 -156 -86h-262q-63 0 -90 16t-27 60z" />
<glyph unicode="M" horiz-adv-x="1157" d="M-18 66q0 14 3 32.5t15 57.5l238 678q25 73 61.5 106t99.5 33q103 0 115 -121l61 -596l261 596q48 121 159 121q63 0 89 -36t26 -112l-12 -684l-2 -53q-23 -98 -115 -98q-74 0 -74 114l19 596q-120 -293 -200 -462.5t-118 -217.5q-27 -30 -84 -30q-96 0 -96 100l-53 612 l-199 -583q-36 -127 -123 -127q-71 0 -71 74z" />
<glyph unicode="N" horiz-adv-x="999" d="M47 76q0 25 6 55l125 707q28 135 111 135q53 0 94 -68l336 -590l90 514q14 75 41.5 109.5t81.5 34.5q74 0 74 -84q0 -28 -7 -60l-127 -723q-21 -120 -108 -120q-61 0 -100 71l-332 582l-90 -508q-26 -139 -119 -139q-76 0 -76 84z" />
<glyph unicode="O" horiz-adv-x="1008" d="M53 365q0 23 2.5 51t7.5 63q41 233 195 369q157 139 363 139q90 0 161 -27.5t121 -78t76.5 -123t26.5 -162.5q0 -26 -2 -56t-9 -61q-39 -228 -192 -366q-150 -138 -361 -138q-92 0 -164 26.5t-122 76.5t-76.5 122.5t-26.5 164.5zM266 389q0 -111 54 -173t153 -62 q58 0 109.5 22.5t92 64.5t68.5 102t41 134q5 20 7 44.5t2 47.5q0 113 -53 175.5t-152 62.5q-59 0 -110 -22.5t-92 -65.5t-70 -104t-42 -138q-5 -20 -6.5 -42.5t-1.5 -45.5z" />
<glyph unicode="P" horiz-adv-x="803" d="M47 76q0 25 6 55l123 688q6 39 17 66.5t29.5 44t46 24t67.5 7.5h203q142 0 215 -66.5t73 -183.5q0 -33 -6 -70q-13 -77 -45 -137t-81 -101.5t-113 -63.5t-142 -22h-166l-32 -186q-26 -139 -119 -139q-76 0 -76 84zM305 489h115q170 0 194 152q2 14 3 24t1 15 q0 106 -145 106h-115z" />
<glyph unicode="Q" horiz-adv-x="1008" d="M53 365q0 16 0.5 28t1.5 24t3 26.5t5 35.5q41 233 195 369q157 139 363 139q90 0 161 -27.5t121 -78t76.5 -123t26.5 -162.5q0 -26 -2 -56t-9 -61q-14 -83 -50.5 -162.5t-98.5 -156.5l65 -76q30 -35 30 -71q0 -7 -1 -13q-3 -15 -11.5 -29t-21 -25t-28 -17.5t-33.5 -6.5 q-23 0 -42 11t-36 32l-72 74q-60 -32 -125.5 -47t-128.5 -15q-92 0 -164 27t-122 77t-76.5 122t-26.5 162zM266 389q0 -111 55 -172t154 -61q34 0 55 6q5 2 17 6.5t35 15.5q-57 57 -57 96q0 6 1 11q7 31 30 52.5t52 21.5q35 0 105 -82q31 60 47 105.5t24 88.5q5 19 7 46.5 t2 47.5q0 113 -55.5 174.5t-149.5 61.5q-59 0 -110 -22.5t-92 -65.5t-70 -104t-42 -138q-5 -20 -6.5 -42.5t-1.5 -45.5z" />
<glyph unicode="R" horiz-adv-x="791" d="M47 76q0 25 6 55l123 688q6 39 17 66.5t29.5 44t46 24t67.5 7.5h176q154 0 231.5 -63t77.5 -173q0 -27 -6 -57q-18 -106 -91.5 -171t-203.5 -85l158 -224q40 -53 40 -100q0 -9 -1 -18q-6 -38 -36 -61t-69 -23q-26 0 -47.5 15.5t-46.5 53.5l-225 367l-51 -291 q-26 -139 -119 -139q-76 0 -76 84zM309 512h121q161 0 182 139q2 3 2 11v20q0 104 -133 104h-123z" />
<glyph unicode="S" horiz-adv-x="727" d="M0 117q2 38 31.5 62t72.5 24q11 0 43 -8t86 -25q61 -18 103 -18q27 0 52 9.5t45 25.5t33 37.5t17 45.5q2 4 2 27q0 45 -39.5 73.5t-119.5 53.5q-60 19 -101.5 39t-64.5 43q-56 53 -56 133v23q2 11 3.5 16t1.5 10q12 64 46 119t85 95t117.5 62.5t144.5 22.5q55 0 99.5 -10 t74.5 -27q30 -18 44 -42q10 -18 10 -38q0 -7 -1 -14q-15 -78 -98 -78q-22 0 -82 17q-29 8 -50.5 12t-35.5 4q-60 0 -99 -27.5t-47 -72.5q-1 -7 -1 -13q0 -50 61 -80q12 -5 41.5 -16.5t77.5 -28.5q49 -17 85.5 -39.5t61.5 -50.5q53 -59 53 -139q0 -17 -1 -29.5t-3 -23.5 q-12 -72 -48 -130t-91 -99t-126.5 -63t-154.5 -22q-65 0 -117.5 10.5t-88.5 29.5t-54 45q-14 20 -13 42q0 6 1 13z" />
<glyph unicode="T" horiz-adv-x="618" d="M68 854q0 16 2 18q15 89 157 89h389q127 0 127 -70q0 -17 -2 -19q-15 -88 -155 -88h-101l-116 -653q-26 -139 -119 -139q-78 0 -78 84q0 25 6 55l117 653h-98q-129 0 -129 70z" />
<glyph unicode="U" horiz-adv-x="981" d="M92 297q0 23 2.5 50t7.5 63l74 419q14 73 43.5 108.5t77.5 35.5q74 0 74 -84q0 -26 -6 -60l-70 -395q-5 -23 -6.5 -47t-1.5 -47q0 -186 174 -186q212 0 262 280l70 395q14 75 41 109.5t81 34.5q74 0 74 -84q0 -26 -6 -60l-74 -419q-18 -105 -60.5 -186.5t-104.5 -136.5 t-141.5 -83.5t-172.5 -28.5q-160 0 -249 81t-89 241z" />
<glyph unicode="V" horiz-adv-x="760" d="M78 815v57q8 42 41.5 70.5t77.5 28.5q23 0 40.5 -21.5t28.5 -64.5l117 -613l311 602q47 97 113 97q78 0 78 -70q0 -16 -2 -18q-3 -11 -10.5 -29.5t-18.5 -44.5l-418 -746q-53 -77 -114 -77t-76 69z" />
<glyph unicode="W" horiz-adv-x="1227" d="M104 844l7 47q6 37 37 60.5t73 23.5q76 0 76 -84l18 -633l295 633q34 82 123 82q81 0 90 -84l60 -633l245 616q20 54 46 77.5t69 23.5q43 -1 63 -25q16 -19 16 -45q0 -8 -1 -16q-3 -32 -18 -64l-295 -698q-15 -37 -30 -62.5t-33.5 -41t-42 -22.5t-54.5 -7 q-103 0 -115 110l-59 568l-256 -555q-53 -123 -166 -123q-111 0 -111 133z" />
<glyph unicode="X" horiz-adv-x="764" d="M-59 70q2 15 10.5 31t18.5 30t19 25t13 18l309 350l-143 262q-17 31 -25.5 55.5t-3.5 47.5q5 35 35 59.5t72 24.5q45 0 86 -80l117 -215l188 219q75 78 121 78q15 0 28.5 -7t22.5 -18.5t13 -25.5q3 -10 4 -20q0 -5 -1 -9q-2 -15 -10.5 -31t-19 -30.5t-20.5 -25.5t-15 -17 l-234 -265l183 -354q11 -23 16.5 -35.5t7.5 -15.5q9 -28 6 -53q-3 -15 -12 -29t-22.5 -24.5t-29.5 -16.5t-34 -6q-58 0 -96 74l-158 305l-264 -303q-70 -74 -117 -74q-30 0 -50 22q-16 18 -16 42q0 6 1 12z" />
<glyph unicode="Y" horiz-adv-x="678" d="M72 872v14t3 17t11 20t23 23q31 27 71 27q44 0 86 -80l135 -262l230 266q66 78 119 78q15 0 28.5 -7t22.5 -18.5t13 -25.5q4 -10 4 -20q0 -4 -1 -9q-3 -26 -24 -53q-5 -6 -15.5 -18.5t-27.5 -32.5l-289 -332l-58 -328q-24 -139 -118 -139q-78 0 -78 86q0 26 6 53l57 328 l-168 327q-12 23 -21 45.5t-9 40.5z" />
<glyph unicode="Z" horiz-adv-x="700" d="M-47 76q0 12 5.5 33.5t25.5 52.5q5 6 15.5 21t33.5 40l520 565h-324q-128 0 -128 70q0 7 1 16q16 87 158 87h381q160 0 160 -76q0 -17 -2 -19q-3 -14 -10.5 -29.5t-18.5 -33.5q-5 -6 -18.5 -22t-36.5 -42l-510 -563h350q127 0 127 -70v-13t-2 -7q-8 -43 -47.5 -64.5 t-108.5 -21.5h-450q-121 0 -121 76z" />
<glyph unicode="[" horiz-adv-x="455" d="M29 -98q0 20 6 49l166 944q7 39 18 66t29.5 43.5t46 24t67.5 7.5h101q91 0 82 -57q-9 -55 -103 -55h-82l-174 -983h84q89 0 80 -60q-9 -57 -102 -57h-98q-121 0 -121 78z" />
<glyph unicode="\" horiz-adv-x="477" d="M41 922q6 29 32.5 49t55.5 20q48 0 70 -73l282 -820q16 -31 8 -59q-5 -29 -31.5 -47.5t-58.5 -18.5q-47 0 -65 68l-283 821q-13 46 -10 60z" />
<glyph unicode="]" horiz-adv-x="455" d="M-47 -119q9 60 96 60h84l174 983h-82q-48 0 -68 12t-14 43q10 57 99 57h100q66 0 92.5 -20t26.5 -68q0 -23 -6 -53l-166 -944q-7 -36 -18 -60.5t-29 -39t-45 -21t-66 -6.5h-100q-87 0 -78 57z" />
<glyph unicode="^" horiz-adv-x="1346" d="M346 594l361 371h155l230 -371h-115l-207 276l-309 -276h-115z" />
<glyph unicode="_" horiz-adv-x="655" d="M-111 -315l25 135h651l-24 -135h-652z" />
<glyph unicode="`" horiz-adv-x="655" d="M285 1016q6 32 29.5 54t52.5 22q41 0 57 -41l76 -152q8 -11 10 -24.5t0 -30.5q-15 -64 -70 -64q-25 0 -53 39l-82 129q-11 22 -16.5 38.5t-3.5 29.5z" />
<glyph unicode="a" horiz-adv-x="797" d="M29 279q0 32 4 51t4 30q27 161 141 269q116 108 246 108q99 0 164 -90q58 82 114 82q70 0 70 -82q0 -27 -6 -63l-78 -449q-27 -141 -117 -141q-32 0 -51 18t-33 72q-98 -96 -202 -96q-56 0 -102.5 20.5t-81 58.5t-53.5 92t-19 120zM225 309q0 -145 127 -145q34 0 65.5 14 t57 39.5t43.5 62t25 82.5q2 8 3 14.5t1 14.5v25q0 66 -34 103.5t-91 37.5q-34 0 -65 -13t-56.5 -38t-44 -61.5t-27.5 -82.5q-2 -8 -3 -15t-1 -15v-23z" />
<glyph unicode="b" horiz-adv-x="797" d="M35 76q0 11 1.5 25.5t4.5 31.5l135 756q21 143 117 143q72 0 72 -90v-24q-2 -11 -3.5 -17.5t-1.5 -11.5l-43 -238q107 80 201 80q58 0 106 -20.5t81.5 -58.5t52 -92.5t18.5 -121.5q0 -32 -4 -51.5t-4 -30.5q-14 -78 -48 -144t-91 -120q-56 -51 -116 -76.5t-126 -25.5 q-54 0 -93 17t-71 67q-61 -80 -114 -80q-74 0 -74 82zM256 307q0 -69 35.5 -109t95.5 -40q34 0 65.5 14.5t57.5 41t44.5 63.5t27.5 83q2 8 3 14.5t1 14.5v25q0 69 -36 109t-93 40q-35 0 -66.5 -14.5t-58 -41t-45 -64t-27.5 -83.5q-2 -8 -3 -15t-1 -15v-23z" />
<glyph unicode="c" horiz-adv-x="621" d="M29 274v52q5 12 5.5 20.5t2.5 13.5q27 165 145 271q119 106 279 106q52 0 92.5 -8.5t67.5 -24.5q27 -14 39 -38q8 -16 8 -36q0 -8 -2 -18q-7 -32 -31.5 -54.5t-56.5 -22.5q-9 0 -26 5t-37.5 11t-42.5 11t-40 5q-37 0 -70.5 -14.5t-60.5 -41t-46 -63.5t-28 -83 q-2 -8 -3 -16.5t-1 -16.5v-23q0 -149 146 -149q15 0 36.5 4t49.5 12t44.5 12.5t22.5 4.5q31 0 46.5 -21.5t9.5 -56.5q-6 -28 -28 -51.5t-57.5 -41t-81.5 -27t-98 -9.5q-65 0 -117 19.5t-89.5 57t-57.5 90.5t-20 121z" />
<glyph unicode="d" horiz-adv-x="797" d="M31 287q0 17 1.5 36t4.5 39q27 160 139 263q113 106 246 106q27 0 48 -3t40.5 -12t39.5 -24.5t44 -40.5l43 238q21 143 119 143q69 0 69 -86q0 -18 -1 -32t-3 -25l-135 -756q-24 -139 -115 -139q-58 0 -86 80q-48 -48 -95.5 -66t-98.5 -18q-56 0 -103.5 22t-82 61.5 t-54.5 94t-20 119.5zM223 309q0 -35 10 -62.5t27.5 -47.5t41.5 -30.5t52 -10.5q34 0 65.5 14.5t57 41t43.5 63.5t27 83q2 8 3 14.5t1 14.5v25q0 149 -127 149q-35 0 -66.5 -14.5t-58 -41t-45 -64t-27.5 -83.5q-2 -11 -3 -22.5t-1 -28.5z" />
<glyph unicode="e" horiz-adv-x="739" d="M31 285q0 34 6 73q27 165 147 273q122 108 271 108q64 0 116 -21t88.5 -58.5t56 -89.5t19.5 -113q0 -34 -6 -68q-4 -24 -11 -38.5t-19.5 -22.5t-30.5 -10.5t-43 -2.5h-408q0 -170 156 -170q27 0 55 6.5t58 17t61.5 24t64.5 26.5q31 0 48 -18t12 -49q-9 -65 -113 -117 q-99 -49 -229 -49q-68 0 -123 21.5t-94 60.5t-60.5 94t-21.5 123zM231 424h326q2 4 2 29q0 66 -36 103.5t-93 37.5q-137 0 -199 -170z" />
<glyph unicode="f" horiz-adv-x="451" d="M39 618q15 80 145 80l9 56q45 278 258 278q112 0 112 -75q0 -9 -2 -19q-8 -37 -30.5 -52.5t-65.5 -23.5q-21 -3 -35.5 -8t-23.5 -15.5t-14 -27.5t-9 -45l-12 -68h49q57 0 86 -20q24 -17 24 -44q0 -8 -2 -16q-12 -79 -137 -79h-53l-72 -406q-12 -74 -37.5 -106.5 t-76.5 -32.5q-74 0 -74 82q0 11 1.5 25.5t4.5 31.5l72 406h-25q-94 0 -94 61q0 8 2 18z" />
<glyph unicode="g" horiz-adv-x="791" d="M-35 -162q6 35 31 57.5t57 22.5q23 0 64 -18q48 -20 86.5 -30.5t70.5 -10.5q88 0 147.5 51.5t76.5 148.5l12 82q-33 -40 -62.5 -67t-58 -43.5t-57.5 -23.5t-60 -7q-53 0 -97 20.5t-76 58.5t-50 90.5t-18 117.5q0 37 6 78q27 158 141 266q113 106 246 106q54 0 93 -19 t71 -69q56 80 106 80q72 0 72 -82q0 -28 -6 -61l-78 -443q-11 -58 -20 -99.5t-17 -66.5q-28 -81 -63 -127q-120 -153 -342 -153q-68 0 -121.5 11t-89.5 29.5t-53 44.5q-12 20 -12 42q0 7 1 14zM225 313q0 -69 34.5 -110t94.5 -41q34 0 66 14.5t58 41t44 64t25 83.5 q2 11 3 22.5t1 28.5q0 68 -35 106.5t-92 38.5q-34 0 -65.5 -13.5t-57.5 -39t-44.5 -61.5t-27.5 -82q-2 -19 -3 -31.5t-1 -20.5z" />
<glyph unicode="h" horiz-adv-x="778" d="M35 76q0 11 1.5 25.5t4.5 31.5l135 756q21 143 117 143q72 0 72 -90v-24q-2 -11 -3.5 -17.5t-1.5 -11.5l-47 -262q30 27 57 45.5t53.5 30t52.5 16t54 4.5q209 0 209 -201q0 -34 -6 -73l-57 -316q-26 -139 -117 -139q-76 0 -76 84q0 25 6 55l46 250q5 20 6.5 39.5 t1.5 38.5q0 108 -109 108q-130 0 -164 -184l-45 -252q-24 -139 -116 -139q-74 0 -74 82z" />
<glyph unicode="i" horiz-adv-x="344" d="M41 76q0 11 1.5 25.5t4.5 31.5l80 442q24 144 117 144q73 0 73 -88q0 -25 -6 -56l-80 -442q-24 -139 -116 -139q-74 0 -74 82zM168 901v13q0 6 2 8q11 48 46 79t83 31q38 0 63 -26t25 -64q0 -16 -2 -20q-4 -24 -15.5 -44.5t-28.5 -35t-38 -23t-43 -8.5q-92 0 -92 90z" />
<glyph unicode="j" horiz-adv-x="344" d="M-4 -211q0 12 1 27.5t3 33.5l127 730q24 141 117 141q73 0 73 -86q0 -25 -6 -55l-129 -730q-24 -143 -119 -143q-67 0 -67 82zM170 901q0 7 0.5 17.5t4.5 23t13 27.5t27 30q33 33 84 33q42 0 66 -24t24 -66q0 -16 -2 -18q-11 -50 -46.5 -81.5t-80.5 -31.5q-42 0 -66 24 t-24 66z" />
<glyph unicode="k" horiz-adv-x="674" d="M35 76q0 11 1.5 25.5t4.5 31.5l135 756q21 143 117 143q72 0 72 -90v-24q-2 -11 -3.5 -17.5t-1.5 -11.5l-79 -451l251 226q63 55 111 55q31 -1 47 -19q13 -14 13 -35q0 -7 -1 -14q-9 -44 -63 -92l-184 -149l168 -252q22 -36 22 -72q2 -11 -1 -27t-14 -31t-31.5 -25.5 t-51.5 -10.5q-55 0 -90 57l-187 334l-45 -250q-24 -139 -116 -139q-74 0 -74 82z" />
<glyph unicode="l" horiz-adv-x="344" d="M41 76q0 11 1.5 25.5t4.5 31.5l135 756q22 143 117 143q72 0 72 -90v-24q-2 -11 -3 -17.5t-1 -11.5l-136 -756q-24 -139 -116 -139q-74 0 -74 82z" />
<glyph unicode="m" horiz-adv-x="1176" d="M37 72q0 27 6 63l78 449q27 145 119 145q51 0 86 -84q49 49 91.5 67.5t96.5 18.5q133 0 197 -113q34 31 63 53t57 35t57 19t62 6q189 0 189 -196v-37q-5 -14 -6 -24.5t-3 -18.5l-55 -320q-27 -141 -119 -141q-69 0 -69 78q0 27 6 63l43 254q5 17 6.5 39t1.5 39 q0 108 -90 108q-127 0 -158 -184l-45 -256q-27 -141 -119 -141q-71 0 -71 78q0 27 6 63l43 254q5 17 6.5 39t1.5 39q0 108 -88 108q-127 0 -158 -184l-45 -256q-27 -141 -118 -141q-72 0 -72 78z" />
<glyph unicode="n" horiz-adv-x="778" d="M37 72q0 27 6 63l78 449q27 145 119 145q52 0 86 -82q49 48 97.5 67t108.5 19q209 0 209 -198q0 -31 -4 -50t-4 -30l-55 -320q-14 -71 -43 -106t-76 -35q-74 0 -74 80q0 14 1.5 29t5.5 32l43 254q5 20 6.5 41t1.5 41q0 107 -107 107q-133 0 -164 -187l-45 -256 q-27 -141 -118 -141q-72 0 -72 78z" />
<glyph unicode="o" horiz-adv-x="766" d="M29 281q0 31 4 49.5t4 29.5q27 165 147 273t273 108q67 0 121 -21.5t92 -60.5t58 -94t20 -123q0 -32 -4.5 -51.5t-4.5 -30.5q-27 -166 -147 -274q-113 -104 -270 -104q-68 0 -122 21.5t-92 60.5t-58.5 94t-20.5 123zM225 305q0 -69 33.5 -109t93.5 -40q36 0 68.5 14.5 t58 41.5t43.5 65t27 85q2 8 3 14.5t1 14.5v25q0 149 -127 149q-34 0 -65.5 -14t-58 -40.5t-45.5 -64t-28 -84.5q-2 -11 -3 -24.5t-1 -32.5z" />
<glyph unicode="p" horiz-adv-x="797" d="M-10 -211q0 25 6 61l125 736q14 72 41.5 107.5t77.5 35.5q51 0 86 -80q48 48 93 66t101 18q58 0 105.5 -20.5t81 -58.5t51.5 -91t18 -117q0 -23 -1.5 -43.5t-6.5 -37.5q-14 -81 -49 -148t-90 -121q-113 -106 -242 -106q-24 0 -45 3t-41 12t-40.5 24.5t-45.5 40.5 l-39 -220q-24 -143 -119 -143q-67 0 -67 82zM256 307q0 -149 131 -149q34 0 66 14t57.5 40.5t44 63.5t27.5 84q2 11 3 23t1 29q0 69 -36 109t-93 40q-34 0 -65.5 -14t-58 -40.5t-45.5 -63.5t-28 -83q-2 -8 -3 -15t-1 -15v-23z" />
<glyph unicode="q" horiz-adv-x="797" d="M31 287q0 37 6 78q27 158 139 264q112 104 242 104q108 0 170 -84q59 80 114 80q70 0 70 -82q0 -28 -6 -61l-129 -736q-24 -143 -117 -143q-74 0 -74 86q0 11 2 25.5t5 31.5l39 220q-31 -24 -57.5 -39.5t-51 -24.5t-47.5 -12.5t-47 -3.5q-56 0 -103 22t-81.5 61.5t-54 94 t-19.5 119.5zM223 307q0 -69 35.5 -109t95.5 -40q34 0 65 14t56.5 40.5t44 63.5t27.5 84q2 8 3 14.5t1 14.5v25q0 68 -33.5 107.5t-93.5 39.5q-35 0 -66.5 -14t-58 -40.5t-45 -63.5t-27.5 -83q-2 -8 -3 -15t-1 -15v-23z" />
<glyph unicode="r" horiz-adv-x="492" d="M37 72q0 27 6 63l78 449q27 145 119 145q51 0 86 -84q49 48 87.5 68t75.5 20q19 0 35 -7.5t26 -20.5q12 -13 16 -30q3 -10 2 -21q0 -7 -1 -15q-9 -50 -69 -78q-32 -11 -64.5 -22.5t-64.5 -22.5q-26 -12 -42.5 -23.5t-27.5 -28t-18 -39t-13 -56.5l-41 -234 q-27 -141 -118 -141q-72 0 -72 78z" />
<glyph unicode="s" horiz-adv-x="565" d="M-16 127q6 35 26 59.5t49 24.5t119 -43q40 -21 74 -21q32 0 56.5 18.5t29.5 43.5q6 44 -113 96q-35 17 -58.5 29.5t-37.5 23.5q-68 50 -68 123q0 5 1.5 14l3.5 21q15 96 100 160q83 65 196 65q49 0 90.5 -11.5t71 -30.5t43.5 -44q10 -18 10 -36q0 -8 -2 -17 q-15 -74 -88 -74q-11 0 -24.5 4.5t-32.5 12.5q-40 18 -66 27.5t-40 9.5q-32 0 -52.5 -16.5t-25.5 -41.5q-1 -4 -1 -7q0 -33 52 -56q29 -14 52 -24.5t40 -18.5q69 -37 104 -75.5t35 -92.5q0 -5 -1 -13t-3 -20q-11 -50 -40 -92.5t-71.5 -74t-95.5 -49t-112 -17.5 q-113 0 -173 38q-50 32 -50 85q0 10 2 20z" />
<glyph unicode="t" horiz-adv-x="426" d="M39 618q15 82 145 82l21 115q24 143 119 143q69 0 69 -81q0 -28 -6 -62l-20 -115h36q107 0 107 -65q0 -8 -2 -17q-12 -77 -133 -77h-35l-74 -408q-12 -74 -37.5 -106.5t-76.5 -32.5q-74 0 -74 82q0 11 1.5 25.5t4.5 31.5l74 408h-25q-49 0 -75 21q-21 17 -20 43q0 6 1 13 z" />
<glyph unicode="u" horiz-adv-x="764" d="M57 207q0 23 2 44t7 38l51 295q27 145 119 145q67 0 67 -82q0 -27 -6 -63l-43 -250q-5 -17 -6.5 -35.5t-1.5 -38.5q0 -54 24.5 -80t81.5 -26q69 0 106 43t54 137l43 250q27 145 119 145q71 0 71 -84q0 -28 -6 -61l-51 -295q-26 -155 -119 -231t-247 -76q-265 0 -265 225z " />
<glyph unicode="v" horiz-adv-x="606" d="M47 594v22q0 6 0.5 15t4 19.5t11.5 23t23 26.5q35 29 70 29q66 0 76 -96l59 -445l213 459q34 78 98 78q38 0 58 -24q16 -19 15 -48q0 -9 -1 -18q-3 -16 -9.5 -32.5t-17.5 -35.5l-270 -487q-29 -51 -57 -72.5t-72 -21.5q-23 0 -38 5t-25.5 17t-17.5 31.5t-13 48.5 l-105 494q-2 5 -2 12z" />
<glyph unicode="w" horiz-adv-x="1012" d="M48 610q0 3 -1 6q0 10 2 19q3 18 13 35t24 30t32 21t38 8q75 0 75 -96l58 -408l184 410q35 86 98 86q78 0 78 -90l43 -402l207 418q35 78 98 78q38 0 58 -24q15 -18 15 -48q0 -9 -1 -18q-2 -9 -6 -19t-8 -19.5t-8 -17.5t-7 -12l-254 -487q-47 -94 -124 -94q-88 0 -97 100 l-43 354l-164 -362q-39 -92 -127 -92q-44 0 -64 21t-28 81l-88 494q-3 14 -3 28z" />
<glyph unicode="x" horiz-adv-x="645" d="M-45 84q6 35 25 55q2 3 8.5 11t17.5 20l232 217l-134 168q-24 36 -24 64q0 8 2 16q3 19 12.5 36t23 30t30 20.5t34.5 7.5q49 0 70 -41l117 -172l163 168q39 45 82 45q40 0 62 -27q18 -21 17 -49q0 -8 -1 -16q-2 -17 -18 -39t-41 -47l-180 -164l141 -211q12 -20 21.5 -38 t9.5 -38q2 -8 -2 -25.5t-15.5 -35.5t-31.5 -31.5t-50 -13.5q-44 0 -77 47l-130 209l-204 -209q-53 -47 -92 -47q-32 0 -53 24q-16 19 -16 48q0 9 1 18z" />
<glyph unicode="y" horiz-adv-x="629" d="M27 -211q2 11 3.5 19t6.5 16q2 3 6 11t12 22l131 200l-131 527q-2 4 -2 26q0 9 0.5 19.5t4 22t11.5 23.5t23 25q35 29 70 29t51 -22.5t27 -71.5l69 -375l219 391q47 78 95 78q75 0 75 -70q0 -16 -2 -18q-3 -14 -9 -32t-17 -38l-471 -792q-26 -44 -46 -61t-49 -17 q-79 0 -79 64q0 11 2 24z" />
<glyph unicode="z" horiz-adv-x="584" d="M-53 23q-2 5 -1.5 12t1.5 16q9 36 43 76l387 424h-219q-107 0 -107 66q0 8 2 18q15 84 135 84h351h69q42 -5 42 -38q0 -6 -1 -13q-2 -20 -14 -37t-41 -49l-383 -410h250q54 0 82 -22q22 -17 22 -46q0 -8 -2 -18q-15 -86 -135 -86h-395q-27 0 -45 1.5t-28 6.5t-13 15z" />
<glyph unicode="{" horiz-adv-x="532" d="M55 371l19 106h10q46 0 79.5 10.5t57.5 33.5t39.5 59t24.5 86l28 168q10 77 32 119.5t56.5 63.5t82.5 26t110 8l33 -2l-19 -107h-14q-40 0 -67.5 -7.5t-45.5 -24.5t-28.5 -46.5t-16.5 -72.5l-28 -164q-20 -94 -48 -133q-36 -53 -116 -68q54 -17 77 -48.5t23 -82.5 q0 -17 -3 -39t-5 -35l-29 -164q-5 -32 -6.5 -44.5t-1.5 -20.5q0 -45 25 -63.5t88 -18.5h14l-18 -105l-35 -2q-63 0 -104 6.5t-70 24.5q-41 29 -41 88q0 9 1.5 21.5t3.5 26t4 25.5t3 19l31 170q6 40 6 68q0 63 -31.5 91t-109.5 28h-11z" />
<glyph unicode="|" horiz-adv-x="655" d="M307 -315v1347h107v-1347h-107z" />
<glyph unicode="}" horiz-adv-x="532" d="M-51 -193l18 105h15q37 0 63 7t43.5 24.5t29 45.5t19.5 70l29 164q7 43 19 76.5t31 58t46.5 41t65.5 25.5q-99 27 -99 127q0 22 2 41.5t7 36.5l28 164q6 39 6 67q0 48 -24.5 66t-87.5 18h-15l19 107h29q37 0 64.5 -1t48.5 -4.5t38 -10.5t35 -19q37 -23 37 -86 q0 -9 -1 -21t-3 -25t-4 -25.5t-5 -22.5l-28 -170q-5 -32 -6.5 -47t-1.5 -23q0 -117 141 -117h10l-20 -108h-9q-46 0 -79.5 -9t-57 -31t-38.5 -57.5t-23 -87.5l-31 -170q-8 -37 -14.5 -64t-14.5 -44q-10 -24 -28 -43t-47.5 -32.5t-72 -20.5t-101.5 -7z" />
<glyph unicode="~" horiz-adv-x="1116" d="M111 330q0 20 9.5 39.5t29.5 38.5q86 74 156.5 108.5t127.5 34.5q38 0 78 -11t82 -34q62 -37 93.5 -53.5t51.5 -16.5q46 0 140 80q18 16 36 23.5t35 7.5q32 0 55 -23t23 -55q0 -45 -41 -80q-149 -137 -280 -137q-70 0 -134 37q-21 12 -42 26t-42.5 25.5t-43 19t-42.5 7.5 q-23 0 -58.5 -21.5t-86.5 -64.5q-34 -29 -70 -29q-32 0 -54.5 23t-22.5 55z" />
<glyph unicode="&#xa4;" horiz-adv-x="840" d="M8 164l148 145q-31 42 -46.5 89.5t-15.5 103.5q0 114 62 188l-148 150l76 71l145 -145q79 59 193 59q56 0 106 -16.5t82 -42.5l150 145l71 -71l-145 -150q59 -77 59 -188q0 -116 -59 -193l145 -145l-71 -76l-150 148q-15 -12 -36.5 -23.5t-46 -20t-51.5 -13.5t-54 -5 q-56 0 -103.5 15.5t-89.5 46.5l-145 -148zM197 502q0 -95 63 -164q65 -68 162 -68q93 0 158 68q63 63 63 164q0 46 -16.5 87.5t-45.5 72.5t-70 49t-89 18q-96 0 -160 -67q-65 -73 -65 -160z" />
<glyph unicode="&#xa9;" horiz-adv-x="1081" d="M59 395v54q5 12 6 20.5t3 13.5q17 104 68 192t136 161q88 72 182 108.5t197 36.5q182 0 301 -119t119 -295q0 -20 -3 -45t-5 -39q-38 -208 -207 -352q-170 -141 -379 -141q-182 0 -301 112q-117 114 -117 293zM162 412q0 -72 23 -130t69 -106q95 -92 240 -92 q164 0 303 115q137 115 166 284q6 37 6 72q0 141 -92 233q-93 93 -242 93q-165 0 -303 -117q-68 -57 -109 -127t-55 -154q-6 -36 -6 -71zM301 424q0 29 6 59q10 61 36.5 111.5t67 86.5t92.5 55.5t113 19.5q92 0 152 -54q60 -52 51 -102q-3 -18 -7 -29.5t-10.5 -19t-17 -12 t-26.5 -7.5q-17 0 -28 4.5t-17 12.5q-3 3 -7 13t-8.5 22.5t-10 24.5t-11.5 18q-26 18 -78 18q-32 0 -59.5 -11.5t-50 -32.5t-37.5 -51t-21 -67q-2 -17 -3 -27.5t-1 -15.5q0 -121 115 -121q49 0 82 19q8 5 18 14.5t21 26.5t17.5 26t8.5 11q18 18 51 18q41 -9 41 -43 q0 -20 -2 -24q-9 -47 -88 -105q-77 -53 -170 -53q-105 0 -162 58t-57 157z" />
<glyph unicode="&#xab;" horiz-adv-x="662" d="M33 322q0 5 1 18.5t6 31.5t15.5 38.5t28.5 40.5q14 14 38.5 33.5t61.5 45.5q74 50 76 50q34 18 57 18q29 0 29 -47q0 -16 -2 -21q-6 -26 -18 -43q-11 -8 -19 -14.5t-14 -11.5l-156 -105l119 -104q11 -12 16 -19.5t7 -9.5q5 -6 5.5 -16.5t-1.5 -26.5q-14 -65 -52 -65 q-21 0 -34 8q-8 5 -26.5 20t-47.5 39q-25 23 -40.5 39t-23.5 27q-26 32 -26 74zM352 324q0 5 1 12.5t3 19.5q14 69 66 115q9 9 84 59q14 11 28.5 19.5t28.5 19.5q47 29 74 29t27 -39v-18t-2 -11q-7 -24 -18.5 -38.5t-31.5 -26.5l-151 -109l114 -104q17 -15 19 -21 q8 -13 8 -32q0 -17 -2 -19q-12 -65 -51 -65q-25 0 -49 18q-2 2 -16 14t-40 35q-18 16 -30.5 28t-20.5 21q-20 23 -30.5 46.5t-10.5 46.5z" />
<glyph unicode="&#xac;" d="M61 317v82h635v-268h-84v186h-551z" />
<glyph unicode="&#xad;" d="M61 350l19 107h635l-19 -107h-635z" />
<glyph unicode="&#xae;" horiz-adv-x="1126" d="M76 395q0 10 1 22t2.5 24t2.5 22.5t2 17.5q19 106 71 194t140 161q175 147 381 147q182 0 301 -119t119 -295v-53q-5 -12 -6 -21t-3 -14q-33 -206 -208 -354q-174 -143 -381 -143q-183 0 -303 114q-119 119 -119 297zM176 412q0 -145 94 -240q95 -94 246 -94 q167 0 305 117q71 61 112.5 133t55.5 153q6 37 6 74q0 143 -96 236q-94 94 -242 94q-170 0 -307 -119q-137 -116 -168 -285q-6 -36 -6 -69zM346 221l92 524h193q99 0 148.5 -26t49.5 -94q0 -5 -1 -14t-3 -21q-24 -133 -186 -133l96 -236h-104l-84 228h-49l-41 -228h-111z M510 524h106q43 0 68 15.5t33 62.5q3 19 -4 32t-21 21t-34 11.5t-42 3.5h-79z" />
<glyph unicode="&#xb0;" horiz-adv-x="541" d="M66 713q0 -43 16.5 -80t44 -64.5t63.5 -43t76 -15.5q42 0 79.5 15.5t65.5 43t44 64.5t16 80t-16 80t-44 64t-65.5 42.5t-79.5 15.5t-78.5 -16.5t-63.5 -44t-42.5 -64.5t-15.5 -77zM121 713q0 31 11 57.5t30.5 46t46 30.5t57.5 11t58 -11.5t47.5 -31t32.5 -46t12 -56.5 q0 -59 -45 -105q-45 -43 -105 -43q-30 0 -56.5 12t-46 32t-31 47t-11.5 57z" />
<glyph unicode="&#xb6;" horiz-adv-x="727" d="M-6 858q0 -161 110 -235q48 -31 113 -46.5t150 -15.5v-813h55v1364h145v-1364h62v1364h102v41h-389q-156 0 -248 -66q-51 -38 -75.5 -96t-24.5 -133z" />
<glyph unicode="&#xb7;" horiz-adv-x="338" d="M96 449q0 -32 21 -53t53 -21q29 0 50.5 21.5t21.5 52.5q0 29 -20.5 50t-51.5 21q-32 0 -53 -20.5t-21 -50.5z" />
<glyph unicode="&#xbb;" horiz-adv-x="662" d="M6 158q0 14 3.5 31t17.5 34q5 5 12.5 11.5t21.5 17.5l156 104l-119 105q-11 11 -20.5 21.5t-9.5 29.5q0 16 2 18q9 68 53 68q23 0 50 -21.5t58 -46.5q26 -23 42 -39.5t22 -25.5q24 -35 24 -76q0 -5 -1 -12.5t-3 -20.5q-5 -28 -16 -52t-31 -44q-14 -15 -39.5 -35 t-60.5 -43t-54.5 -35t-21.5 -14q-33 -18 -55 -18q-31 0 -31 43zM328 158q0 14 3 30.5t17 34.5q5 5 13 11.5t20 17.5l154 104l-117 105q-11 11 -20 21.5t-9 27.5q0 16 2 20q9 68 51 68q23 0 58 -29q12 -11 24 -19.5t25 -19.5q23 -20 34.5 -32t16.5 -17q37 -41 37 -94v-20 t-2 -11q-6 -26 -18 -50t-29 -46q-11 -12 -36.5 -32t-64.5 -46q-38 -23 -56.5 -35t-20.5 -14q-35 -18 -56 -18q-26 0 -26 43z" />
<glyph unicode="&#xd7;" d="M43 174l270 229l-190 230l90 76l188 -230l271 230l61 -76l-268 -230l188 -229l-90 -76l-188 230l-271 -230z" />
<glyph unicode="&#xf7;" d="M61 350l19 107h635l-19 -107h-635zM266 166q4 22 16 41t32 31t46 10q36 0 55 -23.5t13 -58.5t-33.5 -58.5t-62.5 -23.5q-27 -2 -43 10t-21.5 31t-1.5 41zM350 641q4 22 16 41t32 31t46 10q36 0 55 -23.5t13 -58.5t-33.5 -58.5t-62.5 -23.5q-27 -2 -43 10t-21.5 31 t-1.5 41z" />
<glyph unicode="&#x2000;" horiz-adv-x="682" />
<glyph unicode="&#x2001;" horiz-adv-x="1365" />
<glyph unicode="&#x2002;" horiz-adv-x="682" />
<glyph unicode="&#x2003;" horiz-adv-x="1365" />
<glyph unicode="&#x2004;" horiz-adv-x="455" />
<glyph unicode="&#x2005;" horiz-adv-x="341" />
<glyph unicode="&#x2006;" horiz-adv-x="227" />
<glyph unicode="&#x2007;" horiz-adv-x="227" />
<glyph unicode="&#x2008;" horiz-adv-x="170" />
<glyph unicode="&#x2009;" horiz-adv-x="273" />
<glyph unicode="&#x200a;" horiz-adv-x="75" />
<glyph unicode="&#x2010;" horiz-adv-x="555" d="M51 354q0 17 2 21q15 92 111 92h280q76 0 76 -70v-14q0 -5 -2 -8q-15 -92 -108 -92h-281q-78 0 -78 71z" />
<glyph unicode="&#x2011;" horiz-adv-x="555" d="M51 354q0 17 2 21q15 92 111 92h280q76 0 76 -70v-14q0 -5 -2 -8q-15 -92 -108 -92h-281q-78 0 -78 71z" />
<glyph unicode="&#x2012;" horiz-adv-x="555" d="M51 354q0 17 2 21q15 92 111 92h280q76 0 76 -70v-14q0 -5 -2 -8q-15 -92 -108 -92h-281q-78 0 -78 71z" />
<glyph unicode="&#x2013;" d="M61 350l19 107h635l-19 -107h-635z" />
<glyph unicode="&#x2014;" horiz-adv-x="1516" d="M61 350l19 107h1393l-19 -107h-1393z" />
<glyph unicode="&#x2018;" horiz-adv-x="303" d="M111 702q0 7 1 16t3 21q9 51 32 95.5t58 83.5q70 73 139 73q31 0 37 -24q5 -17 -7 -33t-38 -33q-85 -46 -100 -125q5 2 9.5 3t10.5 1q31 0 52.5 -21.5t21.5 -53.5q0 -17 -2 -19q-4 -21 -15.5 -39t-28 -31.5t-37 -21.5t-42.5 -8q-42 0 -68 33.5t-26 82.5z" />
<glyph unicode="&#x2019;" horiz-adv-x="303" d="M80 606q-5 19 6.5 35.5t40.5 30.5q42 23 67 53.5t33 71.5q-6 -2 -11.5 -3t-10.5 -1q-31 0 -52.5 21.5t-21.5 53.5q0 6 0.5 15.5t4.5 20.5t13 24.5t27 27.5q34 31 80 31q45 0 69.5 -32.5t24.5 -88.5v-20q0 -7 -2 -12q-18 -103 -92 -179q-70 -73 -139 -73q-31 0 -37 24z " />
<glyph unicode="&#x201c;" horiz-adv-x="590" d="M111 702q0 7 1 16t3 21q9 51 32 95.5t58 83.5q70 73 139 73q31 0 37 -24q5 -17 -7 -33t-38 -33q-85 -46 -100 -125q5 2 9.5 3t10.5 1q31 0 52.5 -21.5t21.5 -53.5q0 -17 -2 -19q-4 -21 -15.5 -39t-28 -31.5t-37 -21.5t-42.5 -8q-42 0 -68 33.5t-26 82.5zM395 702 q0 7 1 16t3 21q19 101 90 179q72 73 140 73q31 0 37 -24q5 -17 -7 -33t-38 -33q-85 -46 -101 -125q5 2 9.5 3t11.5 1q31 0 52 -21.5t21 -53.5q0 -17 -2 -19q-4 -21 -15 -39t-27.5 -31.5t-37.5 -21.5t-43 -8q-42 0 -68 33.5t-26 82.5z" />
<glyph unicode="&#x201d;" horiz-adv-x="590" d="M80 606q-5 19 6.5 35.5t40.5 30.5q42 23 67 53.5t33 71.5q-6 -2 -11.5 -3t-10.5 -1q-31 0 -52.5 21.5t-21.5 53.5q0 6 0.5 15.5t4.5 20.5t13 24.5t27 27.5q34 31 80 31q45 0 69.5 -32.5t24.5 -88.5v-20q0 -7 -2 -12q-18 -103 -92 -179q-70 -73 -139 -73q-31 0 -37 24z M365 606q-11 38 47 66q42 23 67 53.5t33 71.5q-6 -2 -12 -3t-11 -1q-30 0 -51.5 21.5t-21.5 53.5q0 6 0.5 15.5t4.5 20.5t13 24.5t27 27.5q32 31 80 31q45 0 69.5 -32.5t24.5 -88.5v-20q0 -7 -2 -12q-18 -103 -92 -179q-70 -73 -140 -73q-30 0 -36 24z" />
<glyph unicode="&#x2022;" d="M78 358v25l3 16.5t1 10.5q21 127 129 217q54 45 112 67.5t121 22.5q55 0 102 -18.5t81.5 -52t53.5 -80t19 -101.5q0 -19 -1 -31.5t-3 -23.5q-21 -130 -127 -217q-108 -91 -233 -91q-56 0 -103.5 19.5t-82 53.5t-53.5 81t-19 102z" />
<glyph unicode="&#x2026;" horiz-adv-x="1346" d="M66 88v15q0 7 2 10q5 25 17 47.5t29 39t38 26.5t45 10q38 0 64 -28t26 -73v-14q0 -5 -2 -8q-4 -25 -17 -46.5t-31 -37.5t-39.5 -25.5t-43.5 -9.5q-39 0 -63.5 26t-24.5 68zM524 90q0 8 1 18.5t3 24.5q6 28 45 66q42 37 82 37q39 0 63.5 -28.5t24.5 -70.5q0 -20 -2 -24 q-11 -51 -46 -85t-83 -34q-38 0 -63 26.5t-25 69.5zM985 88v15q0 7 2 10q5 25 17 47.5t29 39t38 26.5t45 10q38 0 64 -28t26 -73v-14q0 -5 -2 -8q-4 -26 -16.5 -47.5t-30.5 -37.5t-40 -25t-44 -9q-38 0 -63 26t-25 68z" />
<glyph unicode="&#x202f;" horiz-adv-x="273" />
<glyph unicode="&#x205f;" horiz-adv-x="341" />
<glyph unicode="&#x25fc;" horiz-adv-x="730" d="M0 0v730h730v-730h-730z" />
</font>
</defs>
</svg>
